<?xml version="1.0" encoding="UTF-8" standalone="no"?>
<!-- Created with Inkscape (http://www.inkscape.org/) -->

<svg
   xmlns:dc="http://purl.org/dc/elements/1.1/"
   xmlns:cc="http://creativecommons.org/ns#"
   xmlns:rdf="http://www.w3.org/1999/02/22-rdf-syntax-ns#"
   xmlns:svg="http://www.w3.org/2000/svg"
   xmlns="http://www.w3.org/2000/svg"
   xmlns:sodipodi="http://sodipodi.sourceforge.net/DTD/sodipodi-0.dtd"
   xmlns:inkscape="http://www.inkscape.org/namespaces/inkscape"
   width="80"
   height="50"
   viewBox="0 0 21.166666 13.229167"
   version="1.1"
   id="svg8"
   inkscape:export-filename="C:\Users\Marcos\Desktop\bitmap.png"
   inkscape:export-xdpi="192"
   inkscape:export-ydpi="192"
   inkscape:version="0.92.3 (2405546, 2018-03-11)"
   sodipodi:docname="yofryman.svg">
  <defs
     id="defs2" />
  <sodipodi:namedview
     id="base"
     pagecolor="#ffffff"
     bordercolor="#666666"
     borderopacity="1.0"
     inkscape:pageopacity="0.0"
     inkscape:pageshadow="2"
     inkscape:zoom="5.6"
     inkscape:cx="53.150752"
     inkscape:cy="13.41469"
     inkscape:document-units="mm"
     inkscape:current-layer="layer1"
     showgrid="false"
     units="px"
     inkscape:snap-global="false"
     inkscape:window-width="1920"
     inkscape:window-height="1017"
     inkscape:window-x="-8"
     inkscape:window-y="-8"
     inkscape:window-maximized="1">
    <sodipodi:guide
       position="0,0"
       orientation="0,80"
       id="guide4603"
       inkscape:locked="false" />
    <sodipodi:guide
       position="21.166667,0"
       orientation="-50,0"
       id="guide4605"
       inkscape:locked="false" />
    <sodipodi:guide
       position="21.166667,13.229167"
       orientation="0,-80"
       id="guide4607"
       inkscape:locked="false" />
    <sodipodi:guide
       position="0,13.229167"
       orientation="50,0"
       id="guide4609"
       inkscape:locked="false" />
  </sodipodi:namedview>
  <metadata
     id="metadata5">
    <rdf:RDF>
      <cc:Work
         rdf:about="">
        <dc:format>image/svg+xml</dc:format>
        <dc:type
           rdf:resource="http://purl.org/dc/dcmitype/StillImage" />
        <dc:title></dc:title>
      </cc:Work>
    </rdf:RDF>
  </metadata>
  <g
     inkscape:label="Capa 1"
     inkscape:groupmode="layer"
     id="layer1"
     transform="translate(0,-283.7708)">
    <rect
       style="opacity:1;fill:#000000;fill-opacity:1;stroke:none;stroke-width:0.26458332;stroke-linecap:round;stroke-linejoin:round;stroke-miterlimit:4;stroke-dasharray:none"
       id="rect4585"
       width="26.994225"
       height="17.439337"
       x="-2.5390604"
       y="282.43378" />
    <path
       style="opacity:1;fill:#ffffff;fill-opacity:1;stroke:none;stroke-width:0.26458332;stroke-linecap:round;stroke-linejoin:round;stroke-miterlimit:4;stroke-dasharray:none"
       d="m 4.6302083,297.16533 1.2284225,-1.01581 1.700893,-0.87407 0.5669643,-0.25986 0.8268229,-0.0709 -0.8740701,-1.6064 -0.283482,-0.96856 0.023624,-0.99219 -0.2126118,-0.87407 -0.094494,-1.25205 0.3779763,-1.06305 -0.3779763,-0.75596 0.047247,-0.4016 0.2126115,-0.75595 -0.2126115,-0.37797 0.2362351,-0.44885 v -0.4016 l 0.1889882,-0.28348 c 3.0450906,-5.9873 10.7502516,-4.33263 11.9062496,-0.11809 0.913211,1.82116 0.925249,3.2561 0.519717,4.51209 l -0.54334,1.39379 -0.472471,0.59059 0.141741,1.98437 0.897694,0.96856 c 4.358407,1.15751 7.249831,4.60718 10.701451,7.18155"
       id="path4555"
       inkscape:connector-curvature="0"
       sodipodi:nodetypes="ccccccccccccccccccccccccc" />
    <path
       style="fill:#000000;stroke-width:0.07009629"
       d="m -5.4782805,319.036 c -0.1348643,-0.17231 -0.2808477,-0.31308 -0.3244145,-0.31308 -0.043567,0 -0.1131966,-0.0794 -0.1547234,-0.17582 -0.047598,-0.11094 -0.085292,-0.1393 -0.1019988,-0.077 -0.024952,0.0933 -0.5174537,-1.0685 -0.5174537,-1.22067 0,-0.039 -0.058897,-0.1643 -0.1308833,-0.27843 -0.071987,-0.1141 -0.1578257,-0.32907 -0.1907431,-0.47771 -0.032915,-0.14882 -0.1286103,-0.37214 -0.2126192,-0.49663 -0.2170009,-0.32157 -0.2584774,-0.49723 -0.339872,-1.43986 -0.071656,-0.82982 -0.070907,-0.83999 0.088925,-1.21183 0.2477182,-0.57634 0.5646322,-1.20171 0.6389761,-1.26092 0.078506,-0.0625 0.3973317,-0.91191 0.3973317,-1.05852 0,-0.0551 0.08048,-0.19651 0.1788407,-0.31405 0.098365,-0.11748 0.2436321,-0.39704 0.3228171,-0.62124 0.1692863,-0.47927 0.5814433,-1.53252 0.8480383,-2.16711 0.1035744,-0.24657 0.4355113,-0.77497 0.7376232,-1.17429 0.3021137,-0.39927 0.5492976,-0.77426 0.5492976,-0.83325 0,-0.0587 0.024637,-0.10738 0.054766,-0.10738 0.030113,0 0.2897803,-0.35496 0.577027,-0.78877 0.2872451,-0.43383 0.5670828,-0.83008 0.6218598,-0.88053 0.05478,-0.0507 0.1694192,-0.20397 0.2547642,-0.34111 0.085342,-0.13721 0.4749354,-0.60736 0.865762,-1.04496 0.39082647,-0.43755 0.72982072,-0.85695 0.75331968,-0.93193 0.0600237,-0.19155 0.73106662,-1.10022 0.81251956,-1.10022 0.0369811,0 0.0766485,-0.0285 0.0881627,-0.0636 0.023824,-0.0722 1.36697836,-1.33777 1.84144596,-1.73509 0.1726362,-0.14457 0.4298939,-0.38902 0.5716833,-0.5432 0.3477225,-0.37812 0.8600515,-0.7665 1.7025038,-1.29057 0.3866639,-0.24058 0.7958876,-0.53812 0.9093867,-0.66119 0.6651461,-0.72128 2.4259772,-1.54375 3.3661959,-1.57232 0.1336033,-0.002 0.1162986,-0.0476 -0.195803,-0.49364 -0.1882976,-0.26905 -0.3943353,-0.61247 -0.4578638,-0.7631 -0.1777413,-0.42155 -0.3368892,-1.24222 -0.3387208,-1.74662 -9.491e-4,-0.25038 -0.033647,-0.52978 -0.072733,-0.62084 -0.1228525,-0.28622 -0.2382319,-1.01794 -0.2405577,-1.52561 -0.00165,-0.35229 0.04471,-0.6346 0.1662454,-1.0131 l 0.1684834,-0.52471 -0.1684834,-0.37625 c -0.1917352,-0.42817 -0.2074363,-0.59511 -0.076317,-0.81126 0.1050017,-0.17311 0.1278468,-0.70529 0.03338,-0.77807 -0.094268,-0.0725 -0.075503,-0.47643 0.027076,-0.58256 0.049424,-0.051 0.087367,-0.2021 0.084314,-0.33549 -0.00349,-0.15029 0.040298,-0.28975 0.114955,-0.36665 0.066262,-0.0681 0.2180927,-0.36276 0.3373854,-0.65443 0.3646365,-0.89145 1.082421,-1.68675 2.0101077,-2.22725 1.283262,-0.7476 1.621795,-0.88033 3.039442,-1.19174 0.455003,-0.1 2.143223,-0.10783 2.504183,-0.0115 1.021009,0.27223 1.329817,0.38725 1.809055,0.67395 0.704395,0.42142 1.316227,0.97071 1.626779,1.46055 0.136789,0.21578 0.248702,0.42437 0.248702,0.46355 0,0.0388 0.03531,0.0722 0.07847,0.0735 0.17403,0.002 0.983377,1.80196 1.021271,2.26764 0.0054,0.0646 0.08931,0.5475 0.186805,1.07319 l 0.177249,0.9558 -0.111037,0.53131 c -0.170317,0.81498 -0.357561,1.45419 -0.476628,1.62708 -0.05928,0.086 -0.146477,0.2936 -0.193773,0.46101 -0.04729,0.16755 -0.156596,0.36075 -0.242921,0.4295 -0.322926,0.25718 -0.333015,0.29022 -0.285136,0.93369 0.02464,0.33117 0.05227,0.74308 0.06144,0.91524 0.01315,0.24812 0.05037,0.33382 0.179234,0.41298 0.08942,0.055 0.180287,0.1694 0.201893,0.25419 0.0496,0.19487 0.486698,0.57072 0.815616,0.70143 0.138101,0.0549 0.279358,0.1262 0.313885,0.15878 0.03453,0.0326 0.16164,0.0829 0.282492,0.11203 0.120848,0.0291 0.276219,0.0847 0.345273,0.12344 0.06904,0.0387 0.535169,0.25352 1.035815,0.47692 0.906408,0.40446 1.280231,0.59906 2.750444,1.43175 0.425137,0.24078 0.824235,0.43782 0.886877,0.43782 0.06264,0 0.147674,0.0508 0.188955,0.11273 0.04127,0.062 0.110292,0.0958 0.153381,0.0752 0.04309,-0.0207 0.175198,0.0707 0.293601,0.20269 0.118401,0.13227 0.413021,0.3648 0.654711,0.51714 0.450227,0.28376 0.79237,0.55056 0.991202,0.77286 0.06178,0.0691 0.183502,0.16613 0.270485,0.21548 0.08697,0.0494 0.258385,0.20768 0.38089,0.35174 0.153413,0.18037 0.259727,0.24726 0.341588,0.21487 0.08956,-0.0353 0.118863,-0.008 0.118863,0.10938 0,0.0874 0.0901,0.23618 0.204024,0.33687 0.112218,0.0989 0.270095,0.2777 0.350851,0.39668 0.08075,0.11883 0.171709,0.2163 0.202118,0.2163 0.0304,0 0.211519,0.1812 0.402467,0.40287 0.279307,0.32411 0.34718,0.45113 0.34718,0.64963 0,0.24078 -0.01658,0.22656 -0.68473,-0.58959 -0.376601,-0.45992 -0.840091,-0.96485 -1.029978,-1.12197 -0.189888,-0.15725 -0.379584,-0.3373 -0.42155,-0.40034 -0.04196,-0.0632 -0.129339,-0.11475 -0.194164,-0.11475 -0.06482,0 -0.117883,-0.0366 -0.117883,-0.0806 0,-0.0445 -0.04945,-0.10415 -0.10987,-0.13291 -0.141251,-0.0673 -0.161227,-0.0865 -0.62722,-0.60369 -0.215496,-0.23918 -0.429059,-0.4349 -0.474588,-0.4349 -0.04554,0 -0.716696,-0.40257 -1.491487,-0.89456 -0.774792,-0.49205 -1.578207,-0.97266 -1.785371,-1.06799 -0.207162,-0.0952 -0.432383,-0.22113 -0.500487,-0.27946 -0.0681,-0.0582 -0.169032,-0.10609 -0.224287,-0.10609 -0.05524,0 -0.380893,-0.14261 -0.723656,-0.3166 -0.628619,-0.31933 -1.67858,-0.75908 -2.252685,-0.94345 -0.234281,-0.0752 -0.430537,-0.2311 -0.794222,-0.63065 l -0.483051,-0.53068 -0.04505,-0.84389 c -0.0248,-0.46415 -0.05878,-0.87294 -0.07557,-0.90846 -0.04499,-0.0951 -0.310516,0.24171 -0.487872,0.61904 -0.207568,0.44159 -0.492406,0.72686 -0.783738,0.78494 -0.22512,0.0448 -0.254603,0.0842 -0.46998,0.62761 -0.202689,0.51133 -0.483137,0.90313 -0.569433,0.79552 -0.01642,-0.0207 0.05825,-0.18883 0.165934,-0.37424 0.233735,-0.40227 0.370061,-0.78747 0.370061,-1.04558 0,-0.23773 0.13684,-0.39723 0.235357,-0.27441 0.100053,0.12452 0.48871,0.015 0.670268,-0.19132 0.08406,-0.095 0.230312,-0.36219 0.325053,-0.59387 0.124335,-0.30409 0.252183,-0.48252 0.459524,-0.64139 0.580079,-0.44451 0.688308,-0.64093 0.82034,-1.48874 0.118125,-0.75852 -0.03203,-1.28342 -0.414657,-1.44951 -0.358638,-0.15576 -0.43809,-0.13667 -0.710027,0.16963 -0.199056,0.2242 -0.277813,0.40179 -0.407858,0.91967 -0.236021,0.93983 -0.494471,1.39332 -0.669624,1.17496 -0.03795,-0.0474 -0.0014,-0.15843 0.100043,-0.30393 0.08792,-0.12607 0.202747,-0.423 0.255141,-0.65977 0.05239,-0.23676 0.122267,-0.49163 0.155287,-0.56636 0.03301,-0.0745 0.06002,-0.18432 0.06002,-0.24368 0,-0.0596 0.140039,-0.27106 0.311193,-0.47069 0.292394,-0.34097 0.331272,-0.36243 0.643461,-0.3551 0.182747,0.002 0.402891,0.0321 0.489208,0.0619 0.181486,0.0625 0.379491,0.51132 0.435458,0.98699 l 0.03683,0.31305 0.140504,-0.52993 c 0.07728,-0.2915 0.140587,-0.66131 0.140671,-0.82183 4.75e-4,-0.68543 -0.460281,-2.64011 -0.769733,-3.26612 -0.800755,-1.61989 -1.224971,-2.17128 -2.060927,-2.67875 -1.061848,-0.64467 -1.832631,-0.84129 -3.290224,-0.83934 -2.285595,0.001 -4.4439074,0.9372 -5.6399587,2.441 -0.4113356,0.51719 -0.7499567,1.19927 -0.6220089,1.25288 0.1276308,0.0537 0.089904,0.15577 -0.076665,0.20798 -0.085326,0.0267 -0.1851885,0.11859 -0.2219267,0.20417 -0.059775,0.13928 -0.046968,0.15558 0.1216086,0.15558 0.1980344,0 0.6321041,0.2218 0.6321041,0.32297 0,0.13415 -0.1408036,0.15225 -0.2830459,0.0358 -0.2133657,-0.17435 -0.4455239,-0.15555 -0.55826,0.0448 -0.05231,0.093 -0.082919,0.19381 -0.068022,0.22395 0.014931,0.0299 0.2117084,0.0727 0.4373679,0.0955 0.3908779,0.0394 0.4293696,0.0619 0.8137026,0.48268 0.2218802,0.24286 0.5286461,0.51068 0.6817016,0.59506 0.1530648,0.0845 0.313728,0.20663 0.357043,0.27179 0.1239814,0.18616 0.2327694,0.13989 0.3184424,-0.13625 0.07027,-0.22623 0.08179,-0.23533 0.104254,-0.082 0.03459,0.23583 -0.08418,0.48571 -0.273528,0.57547 -0.10123,0.048 -0.1502104,0.12356 -0.136772,0.21148 0.01682,0.10994 0.109828,0.14531 0.476346,0.18097 0.621832,0.0605 0.757875,0.22974 0.184575,0.22974 -0.549525,0 -0.7579238,0.20857 -0.8992774,0.90006 -0.052798,0.25831 -0.164578,0.60078 -0.2483917,0.76111 -0.211455,0.40437 -0.3190647,0.94045 -0.2435723,1.21338 0.1051826,0.38033 0.3788246,0.47428 1.5032504,0.5162 l 1.004423,0.0374 0.117246,-0.19528 c 0.120149,-0.19999 0.120166,-0.19999 -0.0708,-0.66004 -0.01128,-0.027 0.02637,-0.0714 0.08347,-0.0988 0.06541,-0.0311 0.236804,0.0636 0.463269,0.25625 0.197685,0.16813 0.469961,0.37688 0.605052,0.46366 0.415007,0.26661 0.787673,0.7237 0.93987,1.15275 0.136938,0.38606 0.139095,0.42466 0.05468,0.97713 -0.04834,0.31635 -0.114108,0.60788 -0.146131,0.6478 -0.09353,0.11672 -0.203172,-0.015 -0.138745,-0.1651 0.05874,-0.13807 0.09243,-0.62679 0.07801,-1.1319 -0.0109,-0.38421 -0.33925,-0.83589 -1.030888,-1.41844 -0.506994,-0.42704 -0.609733,-0.46491 -0.609733,-0.22501 0,0.0694 -0.04692,0.1907 -0.104243,0.26981 -0.05734,0.0787 -0.08959,0.16194 -0.07167,0.18429 0.01792,0.0225 0.213136,0.0803 0.43382,0.12882 0.625765,0.13736 0.970504,0.66263 0.829228,1.2634 -0.0525,0.22322 -0.08223,0.24822 -0.286109,0.24064 -0.125142,-0.002 -0.360922,-0.0867 -0.523946,-0.18223 -0.385776,-0.22608 -0.848432,-0.3161 -1.349348,-0.26247 -0.221642,0.0236 -0.487733,0.0385 -0.591313,0.0333 -1.0229477,-0.0546 -0.996554,-0.0598 -1.3398772,0.25452 l -0.3229546,0.29565 -0.068602,-0.22154 c -0.077959,-0.25179 -0.03547,-0.80803 0.079203,-1.03695 0.080348,-0.16061 0.2091189,-0.25977 0.5181893,-0.39976 l 0.1842554,-0.0833 -0.1985518,-0.24757 -0.1985505,-0.24753 -0.1953322,0.23156 c -0.2825499,0.33494 -0.4915392,0.81611 -0.5379912,1.23867 -0.044263,0.40253 -0.1753153,0.4603 -0.1864806,0.0819 -0.013769,-0.4678 0.174305,-0.97056 0.5828367,-1.55762 0.1984462,-0.28518 0.2713899,-0.4574 0.2713899,-0.64078 0,-0.16775 0.091048,-0.41655 0.2753066,-0.75212 0.1591032,-0.28977 0.2940717,-0.63987 0.3197677,-0.82951 0.024459,-0.18038 0.1124335,-0.42887 0.1955197,-0.55193 0.083077,-0.12307 0.1510564,-0.25991 0.1510564,-0.30404 0,-0.17023 -0.2247636,-0.56153 -0.3228615,-0.562 -0.056719,-2.2e-4 -0.1196854,-0.0543 -0.1399087,-0.12008 -0.054666,-0.17768 -0.5756479,-0.42842 -0.8899174,-0.42842 -0.2108359,0 -0.2907773,0.0368 -0.3422776,0.15661 -0.071372,0.16629 -0.1883306,0.21216 -0.1883306,0.0738 0,-0.13012 0.3925567,-0.54348 0.516206,-0.54348 0.3336289,0 -0.1944394,-0.54129 -0.5546713,-0.56856 -0.2292066,-0.0168 -0.2451004,-0.002 -0.2616926,0.21632 -0.00978,0.12923 -0.063226,0.36629 -0.1189043,0.52701 -0.09878,0.28509 -0.097203,0.29979 0.065434,0.60618 0.2180564,0.41085 0.2194947,0.57368 0.00996,1.1339 -0.159352,0.42614 -0.1715013,0.52168 -0.1392112,1.09574 0.01946,0.34594 0.091131,0.82267 0.1592691,1.05943 0.069881,0.24276 0.1366562,0.72162 0.1531472,1.09828 0.037328,0.85192 0.1571124,1.18285 0.853646,2.35834 0.2975032,0.50205 0.6107319,1.05791 0.6960617,1.23526 0.1198175,0.24899 0.248468,0.37745 0.5649926,0.56415 0.368652,0.21743 0.451764,0.23736 0.826976,0.19838 0.271433,-0.028 0.606076,-0.14081 0.958078,-0.32254 0.29752,-0.15342 0.554739,-0.27921 0.571596,-0.27921 0.07957,0 0.01625,0.18639 -0.110591,0.3255 l -0.141252,0.15491 0.521248,-0.0465 c 0.826145,-0.0741 2.111092,-0.52271 2.636579,-0.92068 0.206202,-0.15612 0.314775,-0.1494 0.233501,0.015 -0.02342,0.0474 -0.301677,0.24055 -0.618357,0.42962 -0.768642,0.45884 -1.724205,0.74429 -2.529961,0.75578 -0.340818,0.002 -0.789165,0.0621 -0.996329,0.12724 -0.535599,0.16839 -1.214058,0.0883 -1.5954095,-0.18821 -0.4428991,-0.32118 -0.7559401,-0.75875 -0.7744536,-1.08253 l -0.015595,-0.27363 -0.4086929,-1.7e-4 c -0.3054664,-9e-5 -0.5591622,0.0668 -1.0044274,0.26475 -0.961073,0.42741 -1.0125235,0.45407 -1.3773592,0.7139 -0.6950505,0.49501 -1.7961658,1.3123 -1.9623083,1.45649 -0.093554,0.0812 -0.2065504,0.14804 -0.2511059,0.14895 -0.1669837,0.001 -1.3884766,1.05995 -1.709258,1.47948 -0.1014013,0.13265 -0.2105703,0.24115 -0.2425801,0.24115 -0.032004,0 -0.2174122,0.1692 -0.4119976,0.37582 -0.1945888,0.20668 -0.4950432,0.5034 -0.66767928,0.6593 -0.17263606,0.15593 -0.74097298,0.82329 -1.26297576,1.48308 -0.52199957,0.65978 -1.15761276,1.44615 -1.41247146,1.74749 -0.2548621,0.30135 -0.5163754,0.65357 -0.5811433,0.78271 -0.064769,0.1292 -0.1367557,0.25239 -0.1599823,0.27392 -0.042388,0.0391 -0.6257038,0.83346 -0.9777831,1.33122 -0.1035745,0.14639 -0.2339183,0.34946 -0.2896374,0.45113 -0.055728,0.10175 -0.269314,0.4027 -0.4746551,0.66897 -0.3925503,0.50899 -0.6537964,1.02273 -1.2410315,2.44053 -0.7664976,1.85056 -1.0733296,2.53226 -1.4568611,3.23667 -0.3966116,0.72847 -0.3985758,0.73477 -0.3985758,1.2853 0,0.39986 0.028153,0.592 0.1015829,0.69316 0.055877,0.077 0.1161171,0.3007 0.133885,0.49711 0.024223,0.26802 0.077229,0.40435 0.2122942,0.54601 0.1193024,0.12503 0.1801432,0.26314 0.1804188,0.40917 4.743e-4,0.26987 0.1519028,0.5665 0.4682944,0.91744 0.148087,0.16427 0.2262997,0.31035 0.2043387,0.3817 -0.019893,0.0646 0.044213,0.23189 0.1453495,0.37933 0.099511,0.14499 0.1820761,0.31164 0.1834782,0.37018 0.00142,0.0583 0.1752671,0.31386 0.3863619,0.56743 0.3760477,0.45169 0.3801123,0.46102 0.2010689,0.46102 -0.1304847,0 -0.2528612,-0.0894 -0.4279379,-0.31308 z m 4.92796389,0.24998 c 0,-0.13388 0.31502439,-1.27941 0.50431902,-1.83401 0.1024293,-0.3001 0.18622539,-0.5929 0.18622539,-0.65071 0,-0.0577 -0.0708424,-0.2712 -0.15742766,-0.47421 -0.08658555,-0.20292 -0.23078753,-0.6449 -0.32045766,-0.98197 -0.10297626,-0.38707 -0.27094173,-0.79325 -0.4559378,-1.10256 l -0.29290408,-0.4897 -0.4381444,-0.0534 c -0.6259159,-0.0763 -1.4108937,-0.31875 -1.411053,-0.43576 -1.876e-4,-0.12764 0.1421644,-0.12232 0.5648595,0.0212 0.3921654,0.13306 1.8870618,0.16919 2.13693203,0.0513 0.0849254,-0.0402 0.30344917,-0.0983 0.48560134,-0.12934 0.35138439,-0.0602 1.19161513,-0.43394 1.41726793,-0.63086 0.1355777,-0.11835 0.2258304,-0.42998 0.3948015,-1.36342 0.090485,-0.49986 0.089689,-0.50904 -0.076482,-0.88967 -0.158589,-0.3633 -0.1662935,-0.42964 -0.1389458,-1.19649 0.022846,-0.64025 0.053105,-0.84515 0.143193,-0.96924 0.1214592,-0.16734 0.2830957,-0.21105 0.2830957,-0.0767 0,0.0445 -0.042372,0.20723 -0.094167,0.36177 -0.177429,0.52944 -0.055627,1.72538 0.1999326,1.96304 0.1095137,0.10165 0.09752,0.24682 -0.1078216,1.30239 -0.086653,0.44546 -0.060704,0.48443 0.3776769,0.56705 0.2812177,0.053 0.7251506,0.24907 0.6826755,0.30155 -0.012443,0.015 -0.1425458,-0.002 -0.2892791,-0.0436 -0.1467434,-0.0392 -0.3849287,-0.10321 -0.5293077,-0.14185 -0.3457335,-0.0926 -0.4031004,-0.0553 -0.4775653,0.31037 l -0.062678,0.30786 0.6681738,0.004 c 0.6890579,0.004 0.7487472,0.13051 0.071803,0.14985 -0.1899022,0.004 -0.4554352,0.0343 -0.5900774,0.0645 -0.2114214,0.0466 -0.2558475,0.0941 -0.3258131,0.34594 -0.087333,0.31454 -0.08239,0.32556 0.1808301,0.40407 0.096357,0.0286 0.1575437,0.0878 0.1359594,0.1312 -0.021584,0.0435 -0.093356,0.0578 -0.1595013,0.0316 -0.2643021,-0.1049 -0.3648324,0.0429 -0.901329,1.32176 -0.65319554,1.5571 -1.16485586,3.02321 -1.21933583,3.49391 -0.0359681,0.31084 -0.0610033,0.3551 -0.21294112,0.37699 -0.0946992,0.015 -0.17217655,-0.008 -0.17217655,-0.049 z m 1.05457878,-3.20566 c 0.0587307,-0.16194 0.17035164,-0.40518 0.24803671,-0.54038 0.0776929,-0.13541 0.14125181,-0.27341 0.14125181,-0.30706 0,-0.0336 0.0537863,-0.1339 0.11953411,-0.22271 0.2127154,-0.28753 0.7016949,-1.92264 0.5749681,-1.92264 -0.026098,0 -0.1396258,0.0574 -0.2523005,0.1275 -0.294613,0.1833 -1.03286671,0.41083 -1.52510121,0.47015 -0.3925901,0.0475 -0.50461762,0.11365 -0.36887557,0.21813 0.0728987,0.0561 0.38456846,0.88118 0.38456846,1.01795 0,0.18059 0.44800588,1.45365 0.5115625,1.45365 0.0327664,0 0.10762248,-0.13264 0.16635508,-0.29451 z m 25.24882583,2.45685 c 0,-1.18414 -0.129112,-1.75579 -0.74021,-3.27767 -0.01287,-0.0324 0.01976,-0.0584 0.07275,-0.0584 0.05331,0 0.198256,0.22729 0.324519,0.50876 0.125501,0.2798 0.25273,0.50875 0.28272,0.50875 0.0931,0 0.141401,-0.53945 0.105985,-1.18371 -0.02659,-0.4837 -0.01578,-0.61648 0.0501,-0.61648 0.09767,0 0.130467,0.11995 0.188446,0.68909 l 0.0423,0.41517 0.223446,-0.0237 c 0.210202,-0.0224 0.230275,-0.0492 0.338697,-0.45428 0.06339,-0.23675 0.141003,-0.50094 0.172477,-0.58701 0.169782,-0.46446 0.383533,-1.23817 0.352677,-1.27662 -0.01953,-0.0242 -0.155021,0.0279 -0.301011,0.11635 -0.28304,0.17148 -0.673452,0.30278 -0.673452,0.22649 0,-0.0251 0.233057,-0.18119 0.517907,-0.34643 0.28485,-0.16527 0.569779,-0.37354 0.633176,-0.46297 0.112266,-0.15841 0.111565,-0.16899 -0.02752,-0.40339 -0.167595,-0.2826 -0.203494,-0.28769 -0.650127,-0.0921 -0.45281,0.19838 -0.880133,0.28819 -0.822966,0.17294 0.02366,-0.0478 0.09757,-0.087 0.164228,-0.087 0.194878,0 0.946034,-0.40269 0.921605,-0.49406 -0.01234,-0.0457 -0.09115,-0.14592 -0.175288,-0.22231 -0.132585,-0.12046 -0.211545,-0.12935 -0.592419,-0.0659 -0.600171,0.0996 -1.430468,0.0991 -1.381086,-2.9e-4 0.02133,-0.043 0.172057,-0.0782 0.334929,-0.0782 0.349791,0 1.342663,-0.14788 1.389934,-0.20701 0.01809,-0.0226 -0.04333,-0.1228 -0.136473,-0.22288 -0.09312,-0.1 -0.212085,-0.30922 -0.264304,-0.46505 -0.102933,-0.30716 -1.002366,-1.5008 -1.291121,-1.71349 -0.294989,-0.21728 -0.481897,-0.17063 -0.65243,0.16261 -0.214326,0.41878 -0.387366,0.59567 -0.89834,0.91842 -0.662465,0.4184 -1.439769,0.74369 -1.903519,0.79664 -0.559914,0.0639 -0.440088,-0.0357 0.51665,-0.42976 0.439527,-0.18099 0.905642,-0.41918 1.035811,-0.52929 0.130171,-0.11005 0.312528,-0.2192 0.405239,-0.24232 0.09483,-0.0235 0.323842,-0.24358 0.523603,-0.50288 0.335939,-0.43606 0.371156,-0.46083 0.654593,-0.46083 0.238885,0 0.34898,0.0483 0.543598,0.23901 0.439633,0.43059 0.971873,1.11956 1.32677,1.71748 0.729869,1.22962 1.466532,2.02454 2.350882,2.53682 0.739249,0.42823 1.416434,0.61871 2.068175,0.58183 0.492036,-0.0279 0.622738,0.0332 0.348943,0.16294 -0.170383,0.0805 -0.494791,0.59756 -1.084616,1.72788 -0.618511,1.18523 -1.301766,2.35503 -1.664833,2.85036 -0.28459,0.38818 -0.307963,0.44732 -0.240978,0.60949 0.0569,0.13792 0.01752,0.11433 -0.168918,-0.0999 -0.133699,-0.15375 -0.361086,-0.3428 -0.505298,-0.42022 -0.144205,-0.0773 -0.334307,-0.23459 -0.422435,-0.34927 -0.241134,-0.31382 -0.427649,-1.04665 -0.438685,-1.72369 -0.0091,-0.56385 -0.01477,-0.58325 -0.186841,-0.65477 -0.238713,-0.0991 -0.478652,0.0384 -0.479912,0.27539 -4.75e-4,0.098 -0.0388,0.31335 -0.08507,0.47909 -0.06999,0.25069 -0.07021,0.38216 -0.0011,0.78267 0.04557,0.26479 0.08387,0.84242 0.08507,1.28366 0.002,0.66218 -0.01425,0.80229 -0.09196,0.80229 -0.07764,0 -0.09417,-0.1423 -0.09417,-0.81193 z m 2.463907,-0.42085 c 0.126373,-0.20437 0.379353,-0.56938 0.562197,-0.81091 0.309387,-0.40863 0.989847,-1.57141 0.992995,-1.69681 7.13e-4,-0.0306 0.05664,-0.14366 0.124161,-0.25127 0.06752,-0.10771 0.123381,-0.25477 0.12416,-0.32705 7.12e-4,-0.0722 0.0386,-0.1779 0.08403,-0.2348 0.04546,-0.057 0.173641,-0.26028 0.28487,-0.45191 l 0.202228,-0.34846 -0.260972,-0.0958 c -0.143538,-0.0526 -0.336821,-0.0934 -0.429531,-0.0902 -0.251692,0.008 -0.924941,-0.29189 -1.604769,-0.71701 -0.715427,-0.44732 -0.621739,-0.52207 -1.07356,0.85658 -0.493682,1.50635 -0.502657,1.55261 -0.458715,2.36516 0.03115,0.5761 0.07678,0.82221 0.220381,1.18907 0.156846,0.4006 0.231514,0.4974 0.557749,0.72301 0.207165,0.14335 0.392041,0.26094 0.410841,0.26144 0.0188,5.8e-4 0.13757,-0.16632 0.263934,-0.37086 z m -0.01558,1.14987 c 0,-0.0455 0.02826,-0.0612 0.06278,-0.0344 0.03453,0.0267 0.06279,0.064 0.06279,0.0829 0,0.0184 -0.02826,0.0344 -0.06279,0.0344 -0.03453,0 -0.06278,-0.0373 -0.06278,-0.0829 z m -4.80241,-0.8082 c 0.306081,-0.12543 1.035816,-0.21434 1.035816,-0.12593 0,0.0717 -0.272264,0.13025 -0.878875,0.18925 -0.406201,0.0397 -0.406911,0.0391 -0.156946,-0.0633 z m -1.035822,-5.75397 c 0.05179,-0.0363 0.249537,-0.0898 0.439436,-0.11933 0.296351,-0.046 0.649196,-0.13241 2.076467,-0.50787 0.123501,-0.0326 0.255738,-0.0831 0.293851,-0.11262 0.0381,-0.0295 0.08652,-0.0187 0.10758,0.0238 0.02106,0.0425 -0.02644,0.0946 -0.105525,0.11549 -0.0791,0.021 -0.386931,0.111 -0.684073,0.20025 -0.564995,0.16939 -1.934084,0.47229 -2.116218,0.4682 -0.09003,-10e-4 -0.09173,-0.0114 -0.01162,-0.068 z M 20.9486,311.2138 c 0.413169,-0.0826 0.843972,-0.17189 0.957344,-0.19834 0.113381,-0.0265 0.206132,-0.0167 0.206132,0.0206 0,0.0963 -0.743898,0.25568 -1.378564,0.2952 l -0.536123,0.0335 z m 4.293567,-2.97638 c -0.08151,-0.0847 -0.114228,-0.15511 -0.07269,-0.15659 0.114241,-0.002 0.39531,0.17002 0.39531,0.24475 0,0.11647 -0.170312,0.07 -0.322625,-0.0883 z M 23.7209,307.53815 c -0.290724,-0.20107 -0.792727,-0.80352 -0.792727,-0.95133 0,-0.0832 0.345217,0.20416 0.569703,0.47479 0.264362,0.31862 0.405498,0.4418 0.473711,0.41343 0.03538,-0.015 0.116092,0.0445 0.179347,0.13188 0.111649,0.15394 0.111517,0.15825 -0.0047,0.15072 -0.06577,-0.002 -0.257227,-0.10299 -0.425449,-0.21926 z M 12.648103,300.7014 c 0.0411,-0.1561 0.576447,-0.28762 1.518145,-0.3729 0.48086,-0.0435 0.975225,-0.11512 1.098591,-0.15894 0.188735,-0.0672 1.481795,-0.33607 2.013437,-0.41901 0.08633,-0.015 0.506404,-0.13543 0.933521,-0.27066 1.080483,-0.34258 1.294511,-0.31371 0.414685,0.0557 -0.908982,0.38183 -1.745493,0.59251 -1.911853,0.48149 -0.09705,-0.0648 -0.181286,-0.0479 -0.375653,0.0757 -0.1602,0.10186 -0.481638,0.18885 -0.891468,0.24134 -0.352509,0.0452 -0.662909,0.0989 -0.689778,0.11958 -0.02687,0.0206 -0.46231,0.0681 -0.967646,0.10522 -0.509178,0.0374 -0.949557,0.10598 -0.98781,0.15374 -0.09318,0.11624 -0.18599,0.10905 -0.154175,-0.0115 z m -2.7827052,-0.32382 c -0.014428,-0.0168 -0.3630492,-0.0709 -0.7748028,-0.12018 -0.4117555,-0.0494 -0.8354958,-0.13883 -0.9416488,-0.1984 -0.1061459,-0.0596 -0.2636286,-0.13264 -0.3499459,-0.16209 -0.2644463,-0.0907 -1.3810871,-0.76092 -1.3810871,-0.82899 0,-0.0351 0.04944,-0.0444 0.1098625,-0.0207 0.3024022,0.12121 0.4800389,0.20209 1.1456742,0.52224 0.3970629,0.19094 0.9196779,0.3895 1.1613671,0.44123 0.7452968,0.15945 1.1030616,0.26389 1.1366106,0.33157 0.03187,0.0644 -0.055687,0.0929 -0.1060277,0.0344 z M 14.5161,297.2913 c 0,-0.11598 0.134815,-0.21331 0.439434,-0.31689 0.676206,-0.22997 1.12891,-0.44026 1.558542,-0.72407 0.445063,-0.294 0.63864,-0.36808 0.63864,-0.24439 0,0.22292 -1.619293,1.07749 -2.34277,1.23641 -0.104008,0.0227 -0.212681,0.0597 -0.241482,0.0818 -0.0288,0.0221 -0.05235,0.008 -0.05235,-0.0329 z m -0.589805,-2.58487 c -0.04257,-0.0876 0.455405,-0.73271 0.524523,-0.67943 0.09909,0.0763 0.08007,0.1636 -0.09091,0.417 -0.152234,0.22559 -0.383516,0.36556 -0.433605,0.26243 z M 9.9961826,294.3258 c -0.3976722,-0.0392 -0.479682,-0.0824 -0.383611,-0.2017 0.051559,-0.0638 0.328504,-0.0964 0.8422904,-0.0989 0.421006,-10e-4 0.846837,-0.0337 0.946293,-0.0698 0.334045,-0.12194 0.151008,0.11698 -0.211624,0.27603 -0.323293,0.14185 -0.540085,0.15913 -1.1933484,0.0946 z m 1.1456714,-2.78193 c 0.01443,-0.054 0.09208,-0.098 0.172638,-0.098 0.08056,0 0.158257,0.0441 0.172634,0.098 0.01726,0.0646 -0.04152,0.098 -0.172634,0.098 -0.131132,0 -0.189892,-0.0335 -0.172638,-0.098 z m 6.905429,-0.11027 c -0.121461,-0.0611 -0.09262,-0.32336 0.04139,-0.37641 0.199441,-0.0787 0.285676,-0.25586 0.192744,-0.39552 -0.131353,-0.19731 -0.0062,-0.23793 0.144253,-0.0466 l 0.139509,0.17746 -0.202752,0.21398 c -0.190548,0.20108 -0.196353,0.22197 -0.0964,0.34657 0.09993,0.1245 0.09893,0.13226 -0.01698,0.12619 -0.06781,-0.002 -0.158622,-0.0238 -0.201783,-0.0457 z m 0.925954,-0.57217 c 0,-0.0392 0.0258,-0.0909 0.05733,-0.11548 0.03152,-0.0242 0.07696,-0.18928 0.100983,-0.36652 0.05494,-0.40539 -0.02055,-0.47717 -0.440804,-0.41905 -0.300602,0.0416 -0.307245,0.0384 -0.156948,-0.0741 0.204957,-0.15324 0.501699,-0.15391 0.676578,-10e-4 0.167944,0.14668 0.172857,0.25075 0.03109,0.65876 -0.09953,0.2865 -0.268226,0.48605 -0.268226,0.31734 z m 0.545114,-1.22708 c -0.02359,-0.0295 -0.04289,-0.18844 -0.04289,-0.35352 0,-0.25507 -0.02029,-0.30002 -0.135328,-0.30002 -0.07443,0 -0.230635,0.0907 -0.347129,0.20146 -0.293198,0.27883 -0.384686,0.20396 -0.128763,-0.10522 0.153064,-0.18489 0.276482,-0.259 0.454731,-0.27284 l 0.244647,-0.0185 0.05312,0.38361 c 0.04965,0.35855 9.5e-4,0.58934 -0.0984,0.46563 z m -4.295487,-1.05132 c -0.0774,-0.0366 -0.217007,-0.0788 -0.310249,-0.0946 -0.09324,-0.0168 -0.180579,-0.0697 -0.194089,-0.12022 -0.029,-0.10849 0.191627,-0.12242 0.347719,-0.0218 0.05995,0.0385 0.177914,0.10289 0.262134,0.14275 0.08421,0.04 0.126601,0.0922 0.09417,0.11623 -0.03245,0.0238 -0.122287,0.015 -0.199678,-0.0227 z m -2.203891,-0.29768 c -0.142346,-0.11262 -0.05778,-0.3586 0.132626,-0.38599 0.219585,-0.0316 0.309012,0.19382 0.138546,0.34918 -0.135393,0.12344 -0.157692,0.12634 -0.271178,0.0369 z m -4.3254091,-0.0608 c -0.1230027,-0.0619 -0.091827,-0.31692 0.044163,-0.36125 0.067459,-0.0219 0.1723194,0.004 0.2330439,0.0606 0.093471,0.0851 0.097553,0.12009 0.026611,0.22652 -0.084745,0.12753 -0.1610112,0.14595 -0.3038258,0.0741 z m 2.3823721,-0.1205 c -0.137451,-0.17147 -0.07803,-0.22488 0.112999,-0.10176 0.103571,0.0667 0.188329,0.13819 0.188329,0.15847 0,0.0767 -0.228948,0.0336 -0.301328,-0.0571 z m -0.09621,-0.59688 c -0.16277,-0.21183 -0.332061,-0.7181 -0.24012,-0.7181 0.02427,0 0.09618,0.12058 0.159833,0.26789 0.06363,0.14727 0.218041,0.35868 0.343109,0.4696 0.219065,0.19444 0.221528,0.20168 0.06724,0.20168 -0.09379,0 -0.230552,-0.0917 -0.33007,-0.22111 z m 1.276413,0.13556 c 0,-0.0569 -0.100796,-0.0694 -0.298189,-0.0375 -0.341897,0.0549 -0.535349,-0.0419 -0.72737,-0.36455 -0.146296,-0.24567 -0.09564,-0.37447 0.09035,-0.22967 0.09073,0.0708 0.182693,0.0771 0.326723,0.0227 0.110245,-0.0417 0.355817,-0.11897 0.545714,-0.17211 0.192086,-0.0533 0.443481,-0.19486 0.566628,-0.3181 0.45766,-0.45828 1.185946,-0.56779 1.724721,-0.25931 l 0.251103,0.14366 -0.711438,0.0517 c -0.688602,0.0501 -0.717718,0.0597 -0.907041,0.29568 -0.107572,0.13403 -0.177395,0.26657 -0.155138,0.29432 0.02226,0.0278 0.174147,-0.004 0.337541,-0.0755 0.368789,-0.1566 0.463044,-0.15843 0.463044,-0.008 0,0.0713 0.05843,0.11734 0.149248,0.11734 0.149532,0 0.339956,0.19878 0.271798,0.28384 -0.01996,0.0248 -0.100889,-0.009 -0.179854,-0.0801 -0.285039,-0.24893 -1.225636,-0.0715 -1.547657,0.2917 -0.134252,0.15143 -0.20018,0.16632 -0.20018,0.0452 z m -1.192757,-1.54884 c 0,-0.043 0.02826,-0.10011 0.06279,-0.1266 0.03453,-0.0268 0.06279,-0.0115 0.06279,0.0299 0,0.043 -0.02826,0.1 -0.06279,0.12646 -0.03453,0.0267 -0.06279,0.0115 -0.06279,-0.03 z m 1.816033,-0.38512 c 0.175683,-0.15309 0.599168,-0.32563 0.80362,-0.32735 0.178216,-10e-4 0.644732,0.22891 0.644732,0.31847 0,0.0373 -0.07246,0.0336 -0.161028,-0.008 -0.240324,-0.11386 -0.797615,-0.0922 -1.053433,0.0412 -0.298198,0.1554 -0.424616,0.14258 -0.233889,-0.0235 z m -3.8248851,-0.44595 c -0.063558,-0.0954 -0.060572,-0.11735 0.016091,-0.11735 0.051796,0 0.1293402,0.0525 0.1723159,0.11735 0.06356,0.0954 0.060572,0.11734 -0.016091,0.11734 -0.051796,0 -0.1293402,-0.0525 -0.1723159,-0.11734 z m 5.4275991,-0.12269 c -0.02275,-0.0457 -0.02847,-0.0997 -0.01278,-0.11934 0.04379,-0.0546 0.234991,0.0535 0.234991,0.1328 0,0.0981 -0.172218,0.0875 -0.2223,-0.015 z m -1.284339,-0.23601 c 0,-0.0958 0.360748,-0.16697 0.564987,-0.11093 0.313043,0.0857 0.211982,0.17955 -0.188331,0.17478 -0.207163,-10e-4 -0.376656,-0.0311 -0.376656,-0.0639 z"
       id="path826"
       inkscape:connector-curvature="0" />
    <flowRoot
       xml:space="preserve"
       id="flowRoot828"
       style="fill:black;fill-opacity:1;stroke:none;font-family:sans-serif;font-style:normal;font-weight:normal;font-size:21.33333333px;line-height:1.25;letter-spacing:0px;word-spacing:0px"><flowRegion
         id="flowRegion830"><rect
           id="rect832"
           width="28.915617"
           height="29.546963"
           x="2.9041886"
           y="9.0888214" /></flowRegion><flowPara
         id="flowPara834"></flowPara></flowRoot>    <flowRoot
       xml:space="preserve"
       id="flowRoot4587"
       style="font-style:normal;font-weight:normal;font-size:21.33333397px;line-height:1.25;font-family:sans-serif;letter-spacing:0px;word-spacing:0px;fill:#000000;fill-opacity:1;stroke:none"
       transform="matrix(0.26458333,0,0,0.26458333,2.4555388,283.48682)"><flowRegion
         id="flowRegion4589"><rect
           id="rect4591"
           width="72.478447"
           height="42.678947"
           x="-3.5355339"
           y="11.614203" /></flowRegion><flowPara
         id="flowPara4593"
         style="font-style:normal;font-variant:normal;font-weight:normal;font-stretch:normal;font-size:10.66666698px;font-family:CONSOLAS;-inkscape-font-specification:CONSOLAS;fill:#ffffff">YOU</flowPara></flowRoot>    <flowRoot
       xml:space="preserve"
       id="flowRoot4595"
       style="font-style:normal;font-weight:normal;font-size:10.66666698px;line-height:1.25;font-family:sans-serif;letter-spacing:0px;word-spacing:0px;fill:#000000;fill-opacity:1;stroke:none"
       transform="matrix(0.26458333,0,0,0.26458333,0.51783471,282.31752)"><flowRegion
         id="flowRegion4597"><rect
           id="rect4599"
           width="56.821083"
           height="25.506355"
           x="-1.767767"
           y="33.837559" /></flowRegion><flowPara
         id="flowPara4601"
         style="font-style:normal;font-variant:normal;font-weight:normal;font-stretch:normal;font-family:Consolas;-inkscape-font-specification:Consolas;fill:#ffffff">BROKE</flowPara></flowRoot>    <text
       xml:space="preserve"
       style="font-style:normal;font-weight:normal;font-size:2.82222223px;line-height:1.25;font-family:sans-serif;letter-spacing:0px;word-spacing:0px;fill:#000000;fill-opacity:1;stroke:none;stroke-width:0.26458332"
       x="2.271791"
       y="296.0144"
       id="text4613"><tspan
         sodipodi:role="line"
         id="tspan4611"
         x="2.271791"
         y="296.0144"
         style="font-style:normal;font-variant:normal;font-weight:normal;font-stretch:normal;font-family:CONSOLAS;-inkscape-font-specification:CONSOLAS;fill:#ffffff;stroke-width:0.26458332">IT</tspan></text>
  </g>
</svg>
